<svg width="1920" height="1060" viewBox="0 0 1920 1060" fill="none" xmlns="http://www.w3.org/2000/svg">
<g clip-path="url(#clip0_509_12795)">
<rect x="-24" y="-26" width="1965" height="1109" rx="15" fill="white"/>
<rect x="-24" y="-26" width="1965" height="1109" fill="#3A1B05" fill-opacity="0.73"/>
<path fill-rule="evenodd" clip-rule="evenodd" d="M254.887 1391.06C507.827 1391.06 712.875 1185.32 712.875 931.539C712.875 795.867 386.555 908.348 293.363 824.233C212.233 751.005 372.606 472.023 254.887 472.023C1.94677 472.023 -203.102 677.755 -203.102 931.539C-203.102 1185.32 1.94677 1391.06 254.887 1391.06Z" fill="#3A1B05"/>
<path opacity="0.541829" fill-rule="evenodd" clip-rule="evenodd" d="M860.731 -240.525C809.595 50.4526 1003.24 327.93 1293.25 379.237C1448.29 406.666 1385.72 8.53253 1500.69 -81.6685C1600.77 -160.195 1887.15 80.6967 1910.95 -54.7253C1962.09 -345.703 1768.44 -623.18 1478.43 -674.487C1188.42 -725.795 911.868 -531.503 860.731 -240.525Z" fill="#3A1B05"/>
<path opacity="0.6" fill-rule="evenodd" clip-rule="evenodd" d="M200.657 -266.228C-37.0289 -179.429 -159.581 84.2612 -73.0701 322.74C-26.8218 450.23 241.476 232.552 357.721 279.614C458.92 320.586 403.32 637.777 513.939 597.38C751.625 510.581 874.177 246.891 787.666 8.41235C701.156 -230.066 438.343 -353.027 200.657 -266.228Z" fill="#3A1B05"/>
<path fill-rule="evenodd" clip-rule="evenodd" d="M2029.4 1033.67C2085.84 712.533 1872.12 406.296 1552.05 349.671C1380.94 319.4 1450 758.798 1323.12 858.348C1212.66 945.013 896.594 679.154 870.329 828.612C813.892 1149.75 1027.61 1455.99 1347.68 1512.61C1667.75 1569.24 1972.96 1354.81 2029.4 1033.67Z" fill="#3A1B05"/>
</g>
<defs>
<clipPath id="clip0_509_12795">
<rect x="-24" y="-26" width="1965" height="1109" rx="15" fill="white"/>
</clipPath>
</defs>
</svg>
